<?xml version="1.0" encoding="UTF-8"?>
<svg width="156px" height="156px" viewBox="0 0 156 156" version="1.1" xmlns="http://www.w3.org/2000/svg" xmlns:xlink="http://www.w3.org/1999/xlink">
    <title>icon</title>
    <defs>
        <rect id="path-1" x="0" y="0" width="156" height="156" rx="35"></rect>
    </defs>
    <g id="Page-1" stroke="none" stroke-width="1" fill="none" fill-rule="evenodd">
        <g id="Group-2">
            <mask id="mask-2" fill="white">
                <use xlink:href="#path-1"></use>
            </mask>
            <g id="Rectangle"></g>
            <g id="Group" mask="url(#mask-2)">
                <g transform="translate(-16.000000, -21.000000)">
                    <g id="p0-link">
                        <path d="M0,0 L188,0 L188,192 L0,192 L0,0 Z M88.7042254,179.063172 C105.028451,179.122759 121.359296,179.03669 137.690141,179.083034 C144.726901,179.23531 152.04831,177.964138 158.429718,174.925241 C163.533521,172.190897 168.107746,168.059586 170.954225,162.974897 C174.456056,157.003034 176.594225,149.965241 176.448592,143.013517 C176.441972,111.465931 176.48831,79.8256552 176.448592,48.297931 C175.899155,40.5451034 173.290986,32.4082759 168.220282,26.3966897 C161.858732,19.0146207 152.074789,14.5787586 142.323944,14.784 C109.443803,14.7508966 76.563662,14.7442759 43.6901408,14.7641379 C35.7067606,14.6317241 27.7697183,17.193931 21.5273239,22.1925517 C17.0722535,25.9994483 13.3983099,30.9848276 11.0416901,36.3475862 C9.10873239,41.385931 8.1356338,46.9075862 8.28788732,52.3034483 C8.32098592,81.6529655 8.29450704,111.002483 8.30774648,140.358621 C8.0628169,147.211034 9.10211268,154.84469 12.5973239,160.862897 C16.5559155,168.423724 23.5728169,174.660414 31.7812676,177.189517 C35.3823944,178.248828 39.2416901,179.129379 43.0083099,179.076414 C58.2402817,179.0952 73.4722535,179.109517 88.7042254,179.063172 Z" id="p0" fill="#F3F5F7" fill-rule="nonzero"></path>
                    </g>
                    <g id="p1-link" transform="translate(8.000000, 15.000000)">
                        <path d="M35.3772231,0.0111491478 C68.2131245,-0.00867155941 101.055638,-0.002064657 133.898152,0.030969855 C143.637838,-0.17384412 153.410585,4.25278049 159.764854,11.6194767 C164.829756,17.6185441 167.43494,25.7384271 167.983748,33.4751098 C168.023421,64.9371791 167.977136,96.5115657 167.983748,127.993456 C168.129215,134.930703 165.993493,141.95384 162.495669,147.913266 C159.652448,152.987368 155.083457,157.110075 149.985495,159.838725 C143.611389,162.871294 136.298359,164.139819 129.269652,163.98786 C112.957495,163.941612 96.6453387,164.027501 80.3397945,163.968039 C65.1252538,164.014288 49.9107131,164 34.6961724,163.981253 C30.9338631,164.034108 27.0789838,163.15539 23.4819781,162.098286 C15.282921,159.574449 8.27404955,153.350747 4.31998813,145.805665 C0.828776702,139.79999 -0.209329725,132.182232 0.0353195603,125.344088 C0.0220952746,96.0490826 0.048543846,66.7606842 0.0154831318,37.4722858 C-0.136596154,32.0876603 0.835388845,26.5775037 2.76613456,21.549651 C5.12005741,16.19806 8.78979669,11.2230625 13.2397688,7.42409365 C19.4750195,2.43588233 27.4029788,-0.1209889 35.3772231,0.0111491478 Z M116.501604,43.7224155 C116.600786,40.3462884 115.278357,37.0956924 112.732682,34.8559525 C110.907731,33.263689 107.066076,33.9309861 106.451147,36.4812504 C106.100703,37.1287269 106.140376,37.7431688 106.570165,38.3311831 C107.555374,39.9300535 108.765397,41.4892825 110.061377,42.8436975 C111.330908,44.6473818 114.617143,43.6299189 116.501604,43.7224155 Z M95.5873959,54.6436252 C92.8301323,54.1282868 90.2117237,53.1438583 87.4742966,52.4633474 C82.5284137,51.2080359 77.4899609,49.0013305 72.3986109,48.9220477 C67.5386859,48.7899096 62.9630831,48.6445578 58.2816859,50.2103936 C51.3455481,52.6153061 44.9714424,56.4605233 40.2503724,62.1556732 C33.1290945,70.3680529 30.556971,82.3794015 31.1652881,93.0033006 C31.1851245,95.5601718 32.1306609,98.3284639 31.7273202,100.839087 C29.2808274,103.415779 26.4309938,105.404456 24.3812295,108.397383 C21.1545038,112.777759 21.2206252,118.730579 23.2571652,123.593259 C24.5928181,126.962779 28.0641931,129.440367 31.2446338,130.920313 C36.8252824,133.272371 43.2588974,133.939668 49.2561109,133.33844 C61.4621266,132.043487 73.469778,128.185056 85.689018,127.200627 C90.6150644,126.738144 95.8320452,128.02649 100.50683,129.532864 C103.852574,130.623003 106.444534,132.671143 109.439835,134.402151 C109.142289,133.523433 108.943924,132.426687 108.348832,131.706535 C103.515355,126.718324 97.3726744,125.02035 90.7274709,123.850928 C84.5517295,123.104348 78.5016188,123.725397 72.4184473,124.822143 C63.2804659,125.416764 55.3392824,127.993456 46.1484038,127.603648 C41.1826845,127.405441 35.8665217,126.929744 32.0314788,123.408265 C28.936996,120.765504 28.8378138,115.255348 31.6611988,112.387952 C32.9571788,110.947647 34.5507052,109.745191 35.9855402,108.437025 C40.4156759,111.621552 44.8920966,114.198243 50.5785395,113.755581 C57.8585088,113.755581 65.1318659,113.722547 72.405223,113.729153 C75.6055002,113.696119 78.5412916,114.072712 81.615938,112.923111 C81.4704709,110.154819 79.2025059,109.110929 76.8551952,108.483273 C73.5887966,107.895259 70.2893373,108.218997 67.0229388,107.512058 C68.4181009,104.829656 70.6331688,102.629557 71.5985416,99.8348376 C72.4184473,97.7206289 72.3258773,95.1703645 72.2531438,92.9306246 C72.1539616,88.4577517 69.6810202,84.1170168 66.0311173,81.5667525 C64.0606988,80.1330547 61.4489023,79.769675 59.1082038,78.8381018 C61.7067759,77.1797693 64.9533381,78.0188459 67.4791766,79.3996885 C73.1590073,82.3595808 76.3989573,88.6361381 76.154308,94.9523368 C76.2204295,98.2623949 74.858328,100.872121 73.7210395,103.865048 C77.1527416,103.26382 80.6175045,102.51724 83.7185995,100.885335 C85.9997887,99.7555548 87.1635259,97.4034976 89.1868416,95.6526684 C92.8830294,101.083542 96.7246844,106.408706 100.639073,111.681014 C101.908604,113.306312 102.649164,113.722547 104.758438,113.71594 C108.831518,113.570588 113.440182,114.317168 117.308285,112.909898 C116.435482,111.826366 115.516394,110.45213 114.29976,109.731977 C111.806982,108.390776 108.580257,108.773977 106.107315,107.545093 C104.586522,106.217105 103.898859,103.805586 103.528579,101.882977 C102.860753,97.9915119 103.19136,94.0141566 105.13533,90.5191052 C107.899206,85.5837491 111.621842,81.262835 116.270179,78.0188459 C120.323422,75.1844848 126.492552,75.7658922 131.259907,74.3189805 C136.721537,72.8918896 143.069194,69.7932524 145.985149,64.7257582 C146.600078,63.5959779 147.505942,61.8583626 146.269471,60.814472 C142.897278,57.1740688 137.984456,54.5577354 133.660114,52.218892 C129.348997,49.7875519 124.403114,48.2151091 119.635759,46.9465839 C116.170997,45.9687623 112.845089,47.342998 109.168737,46.7483768 C106.966894,44.8984441 105.882502,41.8724828 103.389724,40.167902 C100.559727,38.0933346 96.0039609,37.4854996 93.0417209,39.5798877 C90.7406952,41.7865931 90.8200409,45.0834374 91.2233816,48.0169021 C91.7920259,50.4746697 94.1393366,52.621913 95.5873959,54.6436252 Z" id="p1" fill="#3B444E" fill-rule="nonzero"></path>
                    </g>
                    <g id="p2-link" transform="translate(115.000000, 48.000000)">
                        <path d="M6.33287222,0.864945191 C8.80638032,3.12079362 10.0913196,6.39476833 9.99494915,9.79517702 C8.16391068,9.70201513 4.97083659,10.7267958 3.73729488,8.91013914 C2.47805439,7.54598301 1.30233496,5.97553986 0.345055197,4.36517018 C-0.0725500671,3.77292679 -0.111098245,3.15406572 0.229410662,2.50193254 C0.826907425,-0.0666736288 4.55965602,-0.738770063 6.33287222,0.864945191 Z" id="p2" fill="#F3F5F7" fill-rule="nonzero"></path>
                    </g>
                    <g id="p3-link" transform="translate(31.000000, 52.000000)">
                        <path d="M81.5251404,1.90631124 C84.0167197,3.62643826 85.1005897,6.67999708 87.3013746,8.5468016 C90.9759583,9.14684591 94.300267,7.76007684 97.7633639,8.74681637 C102.528427,10.0269109 107.471931,11.6136947 111.780976,14.0672092 C116.103238,16.4273835 121.013698,19.0675785 124.384269,22.7411831 C125.620145,23.7945942 124.714717,25.548057 124.100084,26.6881412 C121.185531,31.8018522 114.840926,34.9287497 109.381922,36.3688561 C104.616859,37.8289639 98.4506961,37.2422539 94.3994014,40.1024651 C89.7533,43.3760402 86.0324536,47.7363622 83.2699068,52.7167299 C81.3268715,56.2436571 80.9964233,60.2572868 81.6639287,64.1842434 C82.0340306,66.1243867 82.7213628,68.5578997 84.2414244,69.8979987 C86.7131768,71.1380903 89.938351,70.751395 92.4299303,72.1048283 C93.6459796,72.8315486 94.5646255,74.2183177 95.4370087,75.3117318 C91.570765,76.7318367 86.9643174,75.9784477 82.8931959,76.1251252 C80.7849365,76.1317923 80.0447326,75.7117613 78.7758116,74.0716402 C74.8633052,68.7512473 71.0234974,63.3775172 67.3290867,57.8971125 C65.3067439,59.6639096 64.1435663,62.0374182 61.8634739,63.1775024 C58.76387,64.8242907 55.3007731,65.5776797 51.870721,66.1843911 C53.0074627,63.1641681 54.3689092,60.5306403 54.3028196,57.1903936 C54.5473512,50.8165896 51.3089591,44.4827886 45.6318594,41.4959014 C43.1072353,40.1024651 39.8622342,39.2557359 37.2649116,40.9291928 C39.6044847,41.8692623 42.2150253,42.235956 44.1844964,43.6827295 C47.8326443,46.2562529 50.3043966,50.6365763 50.4035311,55.150243 C50.4762297,57.4104099 50.5687552,59.9839333 49.7492437,62.1174241 C48.784335,64.9376324 46.5703322,67.1577963 45.1758409,69.8646629 C48.4406689,70.5780489 51.7385417,70.2513581 55.0033697,70.8447353 C57.3495518,71.4781154 59.6164263,72.5315265 59.7618235,75.3250661 C56.6886554,76.4851518 53.7542756,76.1051237 50.5555373,76.1384595 C43.2856774,76.1317923 36.0158175,76.1651281 28.7393486,76.1651281 C23.0556399,76.6118278 18.5813716,74.0116358 14.1533661,70.7980651 C12.719221,72.1181626 11.1264607,73.3315856 9.83110389,74.7850262 C7.00907646,77.6785732 7.10821091,83.2389838 10.2012059,85.9058474 C14.0344047,89.4594432 19.3480114,89.9394786 24.311343,90.1394934 C33.4978023,90.5328558 41.4351676,87.9326638 50.5687552,87.3326195 C56.6490016,86.2258711 62.6962033,85.5991581 68.8689752,86.3525471 C75.5109836,87.5326342 81.6507107,89.2460941 86.4818631,94.2797991 C87.0766698,95.0065195 87.2749387,96.1132679 87.5723421,97 C84.5784816,95.2532043 81.9877679,93.1863851 78.6436323,92.0863038 C73.9710951,90.5661916 68.7566229,89.2660956 63.832945,89.7327967 C51.6195804,90.7262034 39.6177026,94.6198242 27.4175559,95.9265874 C21.423226,96.5332989 14.9927044,95.8599158 9.41473919,93.4864072 C6.23582772,91.9929636 2.76612186,89.492779 1.43111123,86.0925279 C-0.604449545,81.1854989 -0.670539181,75.1783886 2.55463503,70.7580622 C4.60341373,67.7378392 7.45187702,65.7310243 9.89719353,63.1308323 C10.3003403,60.5973119 9.35525852,57.8037723 9.33543163,55.2235817 C8.72740698,44.5027901 11.2982938,32.381895 18.4161475,24.0946164 C23.1349475,18.3475253 29.5059884,14.4672388 36.4387911,12.0403929 C41.1179373,10.4602762 45.6913401,10.6069537 50.5489283,10.7402969 C55.6378302,10.8203028 60.6738604,13.0471339 65.6173652,14.3138941 C68.3534761,15.0006115 70.9706256,15.9940182 73.7265634,16.5140566 C72.2792004,14.4739059 69.9330184,12.3070793 69.3646475,9.82689612 C68.9615007,6.86667753 68.8821932,3.53976519 71.1821125,1.31293409 C74.1429281,-0.800555315 78.696504,-0.187176687 81.5251404,1.90631124 Z M98.3846064,16.6207311 C96.1441678,17.4607932 96.653058,20.5810236 98.5101767,21.5810974 C100.909231,23.4145662 104.722602,21.3210782 103.770912,18.2141821 C102.779567,16.6273983 100.056674,15.7006632 98.3846064,16.6207311 Z" id="p3" fill="#F3F5F7" fill-rule="nonzero"></path>
                    </g>
                    <g id="p4-link" transform="translate(127.000000, 70.000000)">
                        <path d="M1.47899225,0.303457136 C3.14662107,-0.461979437 5.8622854,0.309003778 6.85099814,1.62910453 C7.80016237,4.21383962 3.99691403,5.95548516 1.6042292,4.43015866 C-0.247959338,3.59816238 -0.755498545,1.00233401 1.47899225,0.303457136 Z" id="p4" fill="#3B444E" fill-rule="nonzero"></path>
                    </g>
                </g>
            </g>
        </g>
    </g>
</svg>