<?xml version="1.0" encoding="UTF-8"?>
<svg width="125px" height="101px" viewBox="0 0 125 101" version="1.1" xmlns="http://www.w3.org/2000/svg" xmlns:xlink="http://www.w3.org/1999/xlink">
    <title>Group</title>
    <defs>
        <filter id="filter-1">
            <feColorMatrix in="SourceGraphic" type="matrix" values="0 0 0 0 0.025079 0 0 0 0 0.000000 0 0 0 0 0.000000 0 0 0 1.000000 0"></feColorMatrix>
        </filter>
        <filter id="filter-2">
            <feColorMatrix in="SourceGraphic" type="matrix" values="0 0 0 0 0.025079 0 0 0 0 0.000000 0 0 0 0 0.000000 0 0 0 1.000000 0"></feColorMatrix>
        </filter>
    </defs>
    <g id="Page-1" stroke="none" stroke-width="1" fill="none" fill-rule="evenodd">
        <g id="Group">
            <g filter="url(#filter-1)" id="p2-link">
                <g transform="translate(84.000000, 0.000000)">
                    <path d="M6.33287222,0.864945191 C8.80638032,3.12079362 10.0913196,6.39476833 9.99494915,9.79517702 C8.16391068,9.70201513 4.97083659,10.7267958 3.73729488,8.91013914 C2.47805439,7.54598301 1.30233496,5.97553986 0.345055197,4.36517018 C-0.0725500671,3.77292679 -0.111098245,3.15406572 0.229410662,2.50193254 C0.826907425,-0.0666736288 4.55965602,-0.738770063 6.33287222,0.864945191 Z" id="p2" fill="#F3F5F7" fill-rule="nonzero"></path>
                </g>
            </g>
            <g filter="url(#filter-2)" id="p3-link">
                <g transform="translate(0.000000, 4.000000)">
                    <path d="M81.5251404,1.90631124 C84.0167197,3.62643826 85.1005897,6.67999708 87.3013746,8.5468016 C90.9759583,9.14684591 94.300267,7.76007684 97.7633639,8.74681637 C102.528427,10.0269109 107.471931,11.6136947 111.780976,14.0672092 C116.103238,16.4273835 121.013698,19.0675785 124.384269,22.7411831 C125.620145,23.7945942 124.714717,25.548057 124.100084,26.6881412 C121.185531,31.8018522 114.840926,34.9287497 109.381922,36.3688561 C104.616859,37.8289639 98.4506961,37.2422539 94.3994014,40.1024651 C89.7533,43.3760402 86.0324536,47.7363622 83.2699068,52.7167299 C81.3268715,56.2436571 80.9964233,60.2572868 81.6639287,64.1842434 C82.0340306,66.1243867 82.7213628,68.5578997 84.2414244,69.8979987 C86.7131768,71.1380903 89.938351,70.751395 92.4299303,72.1048283 C93.6459796,72.8315486 94.5646255,74.2183177 95.4370087,75.3117318 C91.570765,76.7318367 86.9643174,75.9784477 82.8931959,76.1251252 C80.7849365,76.1317923 80.0447326,75.7117613 78.7758116,74.0716402 C74.8633052,68.7512473 71.0234974,63.3775172 67.3290867,57.8971125 C65.3067439,59.6639096 64.1435663,62.0374182 61.8634739,63.1775024 C58.76387,64.8242907 55.3007731,65.5776797 51.870721,66.1843911 C53.0074627,63.1641681 54.3689092,60.5306403 54.3028196,57.1903936 C54.5473512,50.8165896 51.3089591,44.4827886 45.6318594,41.4959014 C43.1072353,40.1024651 39.8622342,39.2557359 37.2649116,40.9291928 C39.6044847,41.8692623 42.2150253,42.235956 44.1844964,43.6827295 C47.8326443,46.2562529 50.3043966,50.6365763 50.4035311,55.150243 C50.4762297,57.4104099 50.5687552,59.9839333 49.7492437,62.1174241 C48.784335,64.9376324 46.5703322,67.1577963 45.1758409,69.8646629 C48.4406689,70.5780489 51.7385417,70.2513581 55.0033697,70.8447353 C57.3495518,71.4781154 59.6164263,72.5315265 59.7618235,75.3250661 C56.6886554,76.4851518 53.7542756,76.1051237 50.5555373,76.1384595 C43.2856774,76.1317923 36.0158175,76.1651281 28.7393486,76.1651281 C23.0556399,76.6118278 18.5813716,74.0116358 14.1533661,70.7980651 C12.719221,72.1181626 11.1264607,73.3315856 9.83110389,74.7850262 C7.00907646,77.6785732 7.10821091,83.2389838 10.2012059,85.9058474 C14.0344047,89.4594432 19.3480114,89.9394786 24.311343,90.1394934 C33.4978023,90.5328558 41.4351676,87.9326638 50.5687552,87.3326195 C56.6490016,86.2258711 62.6962033,85.5991581 68.8689752,86.3525471 C75.5109836,87.5326342 81.6507107,89.2460941 86.4818631,94.2797991 C87.0766698,95.0065195 87.2749387,96.1132679 87.5723421,97 C84.5784816,95.2532043 81.9877679,93.1863851 78.6436323,92.0863038 C73.9710951,90.5661916 68.7566229,89.2660956 63.832945,89.7327967 C51.6195804,90.7262034 39.6177026,94.6198242 27.4175559,95.9265874 C21.423226,96.5332989 14.9927044,95.8599158 9.41473919,93.4864072 C6.23582772,91.9929636 2.76612186,89.492779 1.43111123,86.0925279 C-0.604449545,81.1854989 -0.670539181,75.1783886 2.55463503,70.7580622 C4.60341373,67.7378392 7.45187702,65.7310243 9.89719353,63.1308323 C10.3003403,60.5973119 9.35525852,57.8037723 9.33543163,55.2235817 C8.72740698,44.5027901 11.2982938,32.381895 18.4161475,24.0946164 C23.1349475,18.3475253 29.5059884,14.4672388 36.4387911,12.0403929 C41.1179373,10.4602762 45.6913401,10.6069537 50.5489283,10.7402969 C55.6378302,10.8203028 60.6738604,13.0471339 65.6173652,14.3138941 C68.3534761,15.0006115 70.9706256,15.9940182 73.7265634,16.5140566 C72.2792004,14.4739059 69.9330184,12.3070793 69.3646475,9.82689612 C68.9615007,6.86667753 68.8821932,3.53976519 71.1821125,1.31293409 C74.1429281,-0.800555315 78.696504,-0.187176687 81.5251404,1.90631124 Z M98.3846064,16.6207311 C96.1441678,17.4607932 96.653058,20.5810236 98.5101767,21.5810974 C100.909231,23.4145662 104.722602,21.3210782 103.770912,18.2141821 C102.779567,16.6273983 100.056674,15.7006632 98.3846064,16.6207311 Z" id="p3" fill="#F3F5F7" fill-rule="nonzero"></path>
                </g>
            </g>
        </g>
    </g>
</svg>